<svg xmlns="http://www.w3.org/2000/svg" xmlns:xlink="http://www.w3.org/1999/xlink" width="40" zoomAndPan="magnify" viewBox="0 0 30 30.000001" height="40" preserveAspectRatio="xMidYMid meet" version="1.0"><defs><clipPath id="4034a060e1"><path d="M 0.484375 0 L 29.515625 0 L 29.515625 29.03125 L 0.484375 29.03125 Z M 0.484375 0 " clip-rule="nonzero"/></clipPath><clipPath id="423eed0930"><path d="M 0.484375 9 L 11 9 L 11 17 L 0.484375 17 Z M 0.484375 9 " clip-rule="nonzero"/></clipPath><clipPath id="edc90afc44"><path d="M -1.757812 5.777344 L 31.933594 -3.082031 L 38.210938 20.785156 L 4.515625 29.644531 Z M -1.757812 5.777344 " clip-rule="nonzero"/></clipPath><clipPath id="58f2592af9"><path d="M 32.144531 -3.136719 L -1.550781 5.722656 L 4.722656 29.589844 L 38.417969 20.730469 Z M 32.144531 -3.136719 " clip-rule="nonzero"/></clipPath><clipPath id="6071f71812"><path d="M 10.144531 9 L 0.0195312 11.660156 L 1.839844 18.578125 L 11.964844 15.917969 Z M 10.144531 9 " clip-rule="nonzero"/></clipPath><clipPath id="ee060824ce"><path d="M 10.144531 9 L 0.03125 11.65625 L 1.847656 18.578125 L 11.964844 15.917969 Z M 10.144531 9 " clip-rule="nonzero"/></clipPath><clipPath id="0c401c1dab"><path d="M 6 10 L 8 10 L 8 12 L 6 12 Z M 6 10 " clip-rule="nonzero"/></clipPath><clipPath id="56db60be2c"><path d="M -1.757812 5.777344 L 31.933594 -3.082031 L 38.210938 20.785156 L 4.515625 29.644531 Z M -1.757812 5.777344 " clip-rule="nonzero"/></clipPath><clipPath id="c66ed9a009"><path d="M 32.144531 -3.136719 L -1.550781 5.722656 L 4.722656 29.589844 L 38.417969 20.730469 Z M 32.144531 -3.136719 " clip-rule="nonzero"/></clipPath><clipPath id="2fe5274b7f"><path d="M 11 3 L 29.515625 3 L 29.515625 12 L 11 12 Z M 11 3 " clip-rule="nonzero"/></clipPath><clipPath id="8f288970eb"><path d="M -1.757812 5.777344 L 31.933594 -3.082031 L 38.210938 20.785156 L 4.515625 29.644531 Z M -1.757812 5.777344 " clip-rule="nonzero"/></clipPath><clipPath id="4a5007d851"><path d="M 32.144531 -3.136719 L -1.550781 5.722656 L 4.722656 29.589844 L 38.417969 20.730469 Z M 32.144531 -3.136719 " clip-rule="nonzero"/></clipPath><clipPath id="69550e8b09"><path d="M 12 11 L 17 11 L 17 15 L 12 15 Z M 12 11 " clip-rule="nonzero"/></clipPath><clipPath id="97137522c0"><path d="M -1.757812 5.777344 L 31.933594 -3.082031 L 38.210938 20.785156 L 4.515625 29.644531 Z M -1.757812 5.777344 " clip-rule="nonzero"/></clipPath><clipPath id="12cb3a2841"><path d="M 32.144531 -3.136719 L -1.550781 5.722656 L 4.722656 29.589844 L 38.417969 20.730469 Z M 32.144531 -3.136719 " clip-rule="nonzero"/></clipPath><clipPath id="25df727044"><path d="M 12 11 L 20 11 L 20 13 L 12 13 Z M 12 11 " clip-rule="nonzero"/></clipPath><clipPath id="1b66214ee0"><path d="M -1.757812 5.777344 L 31.933594 -3.082031 L 38.210938 20.785156 L 4.515625 29.644531 Z M -1.757812 5.777344 " clip-rule="nonzero"/></clipPath><clipPath id="6d8a2e9148"><path d="M 32.144531 -3.136719 L -1.550781 5.722656 L 4.722656 29.589844 L 38.417969 20.730469 Z M 32.144531 -3.136719 " clip-rule="nonzero"/></clipPath><clipPath id="4f6e57da22"><path d="M 13 8 L 22 8 L 22 12 L 13 12 Z M 13 8 " clip-rule="nonzero"/></clipPath><clipPath id="71ca738e26"><path d="M -1.757812 5.777344 L 31.933594 -3.082031 L 38.210938 20.785156 L 4.515625 29.644531 Z M -1.757812 5.777344 " clip-rule="nonzero"/></clipPath><clipPath id="f1d8c76925"><path d="M 32.144531 -3.136719 L -1.550781 5.722656 L 4.722656 29.589844 L 38.417969 20.730469 Z M 32.144531 -3.136719 " clip-rule="nonzero"/></clipPath><clipPath id="f94310f9b7"><path d="M 14 4 L 29 4 L 29 10 L 14 10 Z M 14 4 " clip-rule="nonzero"/></clipPath><clipPath id="051393d725"><path d="M -1.757812 5.777344 L 31.933594 -3.082031 L 38.210938 20.785156 L 4.515625 29.644531 Z M -1.757812 5.777344 " clip-rule="nonzero"/></clipPath><clipPath id="9839ecf05a"><path d="M 32.144531 -3.136719 L -1.550781 5.722656 L 4.722656 29.589844 L 38.417969 20.730469 Z M 32.144531 -3.136719 " clip-rule="nonzero"/></clipPath><clipPath id="f86a5424a4"><path d="M 11 1 L 23 1 L 23 11 L 11 11 Z M 11 1 " clip-rule="nonzero"/></clipPath><clipPath id="7f1337b3e6"><path d="M -1.757812 5.777344 L 31.933594 -3.082031 L 38.210938 20.785156 L 4.515625 29.644531 Z M -1.757812 5.777344 " clip-rule="nonzero"/></clipPath><clipPath id="3222f4bc3b"><path d="M 32.144531 -3.136719 L -1.550781 5.722656 L 4.722656 29.589844 L 38.417969 20.730469 Z M 32.144531 -3.136719 " clip-rule="nonzero"/></clipPath><clipPath id="51da13d6b7"><path d="M 10 14 L 17 14 L 17 28 L 10 28 Z M 10 14 " clip-rule="nonzero"/></clipPath><clipPath id="7771f6327c"><path d="M -1.757812 5.777344 L 31.933594 -3.082031 L 38.210938 20.785156 L 4.515625 29.644531 Z M -1.757812 5.777344 " clip-rule="nonzero"/></clipPath><clipPath id="d5193ca9b4"><path d="M 32.144531 -3.136719 L -1.550781 5.722656 L 4.722656 29.589844 L 38.417969 20.730469 Z M 32.144531 -3.136719 " clip-rule="nonzero"/></clipPath><clipPath id="1bf520010d"><path d="M 15.273438 14.097656 L 9.800781 15.535156 L 12.929688 27.4375 L 18.402344 26 Z M 15.273438 14.097656 " clip-rule="nonzero"/></clipPath><clipPath id="fb2385136f"><path d="M 15.273438 14.097656 L 9.800781 15.535156 L 12.925781 27.433594 L 18.402344 25.992188 Z M 15.273438 14.097656 " clip-rule="nonzero"/></clipPath></defs><g clip-path="url(#4034a060e1)"><path fill="#ffffff" d="M 0.484375 0 L 29.515625 0 L 29.515625 36.289062 L 0.484375 36.289062 Z M 0.484375 0 " fill-opacity="1" fill-rule="nonzero"/><path fill="#ffffff" d="M 0.484375 0 L 29.515625 0 L 29.515625 29.03125 L 0.484375 29.03125 Z M 0.484375 0 " fill-opacity="1" fill-rule="nonzero"/><path fill="#14213d" d="M 0.484375 0 L 29.515625 0 L 29.515625 29.03125 L 0.484375 29.03125 Z M 0.484375 0 " fill-opacity="1" fill-rule="nonzero"/></g><g clip-path="url(#423eed0930)"><g clip-path="url(#edc90afc44)"><g clip-path="url(#58f2592af9)"><g clip-path="url(#6071f71812)"><g clip-path="url(#ee060824ce)"><path fill="#ffffff" d="M 4.96875 12.429688 C 7.15625 7.417969 10.566406 10.625 10.566406 10.625 C 8.5 9.535156 6.847656 10.140625 6.25 11.21875 C 5.648438 12.300781 8.132812 12.457031 9.90625 12.429688 C 11.679688 12.402344 10.472656 16.296875 10.472656 16.296875 C 10.472656 16.296875 9.574219 14.835938 8.640625 13.851562 C 8.484375 13.6875 8.300781 13.546875 8.101562 13.425781 C 6.992188 12.742188 5.597656 12.738281 4.460938 13.363281 L 0.980469 15.277344 L 4.96875 12.429688 " fill-opacity="1" fill-rule="nonzero"/></g></g></g></g></g><g clip-path="url(#0c401c1dab)"><g clip-path="url(#56db60be2c)"><g clip-path="url(#c66ed9a009)"><path fill="#ffffff" d="M 6.71875 11.609375 C 6.554688 11.40625 6.589844 11.109375 6.792969 10.945312 C 6.996094 10.78125 7.292969 10.816406 7.457031 11.019531 C 7.617188 11.226562 7.585938 11.523438 7.382812 11.6875 C 7.179688 11.847656 6.878906 11.816406 6.71875 11.609375 " fill-opacity="1" fill-rule="nonzero"/></g></g></g><g clip-path="url(#2fe5274b7f)"><g clip-path="url(#8f288970eb)"><g clip-path="url(#4a5007d851)"><path fill="#ffffff" d="M 11.832031 11.230469 C 11.832031 11.230469 20.179688 2.386719 27.050781 3.058594 C 33.925781 3.726562 22.527344 3.085938 11.832031 11.230469 " fill-opacity="1" fill-rule="nonzero"/></g></g></g><g clip-path="url(#69550e8b09)"><g clip-path="url(#97137522c0)"><g clip-path="url(#12cb3a2841)"><path fill="#ffffff" d="M 16.761719 14.082031 C 17.910156 16.402344 12.132812 11.609375 12.132812 11.609375 C 12.132812 11.609375 15.617188 11.757812 16.761719 14.082031 " fill-opacity="1" fill-rule="nonzero"/></g></g></g><g clip-path="url(#25df727044)"><g clip-path="url(#1b66214ee0)"><g clip-path="url(#6d8a2e9148)"><path fill="#ffffff" d="M 18.960938 12.578125 C 17.824219 13.511719 12.683594 11.171875 12.683594 11.171875 C 12.683594 11.171875 20.097656 11.640625 18.960938 12.578125 " fill-opacity="1" fill-rule="nonzero"/></g></g></g><g clip-path="url(#4f6e57da22)"><g clip-path="url(#71ca738e26)"><g clip-path="url(#f1d8c76925)"><path fill="#ffffff" d="M 21.773438 9.515625 C 21.238281 11.914062 13.28125 10.691406 13.28125 10.691406 C 13.28125 10.691406 22.308594 7.117188 21.773438 9.515625 " fill-opacity="1" fill-rule="nonzero"/></g></g></g><g clip-path="url(#f94310f9b7)"><g clip-path="url(#051393d725)"><g clip-path="url(#9839ecf05a)"><path fill="#ffffff" d="M 27.925781 4.6875 C 30.378906 5.125 14.808594 9.753906 14.808594 9.753906 C 14.808594 9.753906 25.472656 4.25 27.925781 4.6875 " fill-opacity="1" fill-rule="nonzero"/></g></g></g><g clip-path="url(#f86a5424a4)"><g clip-path="url(#7f1337b3e6)"><g clip-path="url(#3222f4bc3b)"><path fill="#ffffff" d="M 11.519531 10.839844 C 11.519531 10.839844 20.34375 -0.0351562 21.933594 1.699219 C 23.519531 3.4375 18.863281 4.050781 11.519531 10.839844 " fill-opacity="1" fill-rule="nonzero"/></g></g></g><g clip-path="url(#51da13d6b7)"><g clip-path="url(#7771f6327c)"><g clip-path="url(#d5193ca9b4)"><g clip-path="url(#1bf520010d)"><g clip-path="url(#fb2385136f)"><path fill="#ffffff" d="M 14.40625 17.441406 C 13.59375 17.488281 9.746094 17.671875 10.476562 16.820312 C 10.921875 16.296875 12.054688 16.304688 12.980469 16.417969 C 13.710938 16.507812 14.382812 16.015625 14.535156 15.292969 C 14.609375 14.957031 14.707031 14.589844 14.851562 14.226562 C 14.851562 14.226562 17.609375 17.320312 15.214844 24.828125 C 12.820312 32.332031 14.992188 18.734375 14.992188 18.734375 C 14.992188 18.734375 13.957031 22.5625 12.929688 21.953125 C 11.90625 21.347656 14.648438 18.445312 14.648438 18.445312 C 14.648438 18.445312 10.171875 22.507812 11.34375 19.957031 C 12.324219 17.820312 13.917969 17.492188 14.40625 17.441406 " fill-opacity="1" fill-rule="nonzero"/></g></g></g></g></g></svg>